<?xml version="1.0" encoding="UTF-8" standalone="no"?>
<!-- Created with Inkscape (http://www.inkscape.org/) -->

<svg
   xmlns:dc="http://purl.org/dc/elements/1.1/"
   xmlns:cc="http://creativecommons.org/ns#"
   xmlns:rdf="http://www.w3.org/1999/02/22-rdf-syntax-ns#"
   xmlns:svg="http://www.w3.org/2000/svg"
   xmlns="http://www.w3.org/2000/svg"
   xmlns:xlink="http://www.w3.org/1999/xlink"
   xmlns:sodipodi="http://sodipodi.sourceforge.net/DTD/sodipodi-0.dtd"
   xmlns:inkscape="http://www.inkscape.org/namespaces/inkscape"
   width="400"
   height="400.03125"
   id="svg2"
   version="1.1"
   inkscape:version="0.48.5 r10040"
   sodipodi:docname="collab.svg">
  <defs
     id="defs4">
    <linearGradient
       inkscape:collect="always"
       id="linearGradient5074">
      <stop
         style="stop-color:#9000ff;stop-opacity:1;"
         offset="0"
         id="stop5076" />
      <stop
         style="stop-color:#c724c7;stop-opacity:1"
         offset="1"
         id="stop5078" />
    </linearGradient>
    <marker
       inkscape:stockid="Arrow1Lstart"
       orient="auto"
       refY="0"
       refX="0"
       id="Arrow1Lstart"
       style="overflow:visible">
      <path
         id="path4031"
         d="M 0,0 5,-5 -12.5,0 5,5 0,0 z"
         style="fill-rule:evenodd;stroke:#000000;stroke-width:1pt"
         transform="matrix(0.8,0,0,0.8,10,0)"
         inkscape:connector-curvature="0" />
    </marker>
    <inkscape:perspective
       sodipodi:type="inkscape:persp3d"
       inkscape:vp_x="0 : 526.18109 : 1"
       inkscape:vp_y="0 : 1000 : 0"
       inkscape:vp_z="744.09448 : 526.18109 : 1"
       inkscape:persp3d-origin="372.04724 : 350.78739 : 1"
       id="perspective4025" />
    <linearGradient
       inkscape:collect="always"
       xlink:href="#linearGradient5074"
       id="linearGradient5080"
       x1="92"
       y1="676.36218"
       x2="642"
       y2="112.36218"
       gradientUnits="userSpaceOnUse"
       gradientTransform="matrix(0.94580004,0,0,0.89900079,-115.76291,392.31842)" />
  </defs>
  <sodipodi:namedview
     id="base"
     pagecolor="#ffffff"
     bordercolor="#666666"
     borderopacity="1.0"
     inkscape:pageopacity="0.0"
     inkscape:pageshadow="2"
     inkscape:zoom="1"
     inkscape:cx="294.46875"
     inkscape:cy="270.48157"
     inkscape:document-units="px"
     inkscape:current-layer="layer1"
     showgrid="false"
     inkscape:snap-global="true"
     inkscape:snap-bbox="false"
     inkscape:object-paths="false"
     inkscape:snap-grids="true"
     inkscape:snap-page="false"
     inkscape:window-width="1436"
     inkscape:window-height="855"
     inkscape:window-x="0"
     inkscape:window-y="0"
     inkscape:window-maximized="1"
     fit-margin-top="0"
     fit-margin-left="0"
     fit-margin-right="0"
     fit-margin-bottom="0" />
  <metadata
     id="metadata7">
    <rdf:RDF>
      <cc:Work
         rdf:about="">
        <dc:format>image/svg+xml</dc:format>
        <dc:type
           rdf:resource="http://purl.org/dc/dcmitype/StillImage" />
        <dc:title></dc:title>
      </cc:Work>
    </rdf:RDF>
  </metadata>
  <g
     inkscape:groupmode="layer"
     id="layer2"
     inkscape:label="background"
     transform="translate(-10.53125,-564.8125)">
    <rect
       style="fill:url(#linearGradient5080);fill-opacity:1;stroke:#9000ff;stroke-width:0.87599838;stroke-linecap:round;stroke-linejoin:miter;stroke-miterlimit:4;stroke-opacity:1;stroke-dasharray:none"
       id="rect5072"
       width="399.12756"
       height="399.15634"
       x="10.974304"
       y="565.2522"
       rx="28.373999"
       ry="26.970022" />
  </g>
  <g
     inkscape:label="letter"
     inkscape:groupmode="layer"
     id="layer1"
     style="display:inline"
     transform="translate(-10.53125,-564.8125)">
    <g
       transform="matrix(0.93937658,-0.10459723,0.11004223,0.89289519,-141.486,385.18072)"
       style="font-size:40px;font-style:normal;font-variant:normal;font-weight:500;font-stretch:normal;text-align:start;line-height:125%;letter-spacing:0px;word-spacing:0px;writing-mode:lr-tb;text-anchor:start;fill:#ffffff;fill-opacity:1;stroke:#ff4900;stroke-width:0;stroke-linecap:round;stroke-miterlimit:4;stroke-opacity:1;font-family:Cochin;-inkscape-font-specification:Cochin Medium"
       id="flowRoot4017">
      <path
         d="m 441.3125,402.83757 c -4.33364,-14.99978 -10.16697,-28.8331 -17.5,-41.5 -7.00029,-12.6664 -15.50028,-23.66639 -25.5,-33 -9.66693,-9.33304 -21.00025,-16.4997 -34,-21.5 -12.66689,-5.33302 -27.00021,-7.99969 -43,-8 -20.66684,3.1e-4 -38.16682,4.00031 -52.5,12 -14.33346,8.00029 -26.16678,18.83361 -35.5,32.5 -9.0001,13.66692 -15.66676,29.50024 -20,47.5 -4.00008,18.0002 -6.00008,37.00018 -6,57 -8e-5,20.00014 2.66659,39.16679 8,57.5 5.33324,18.00009 13.16657,33.83341 23.5,47.5 10.66655,13.66671 23.8332,24.6667 39.5,33 15.99983,8.00002 34.33315,12.00001 55,12 30.99977,10e-6 57.6664,-7.83331 80,-23.5 22.66636,-15.66661 42.66634,-36.99993 60,-64 l 12.5,10 c -11.33368,17.00007 -22.667,32.00006 -34,45 -11.33364,13.00003 -23.66697,24.00002 -37,33 -13.33361,9 -27.83359,15.83333 -43.5,20.5 -15.66689,4.66665 -33.33354,6.99999 -53,7 -22.3335,-10e-6 -43.50015,-4.16668 -63.5,-12.5 -20.00011,-8.66666 -37.50009,-20.49998 -52.5,-35.5 -15.00006,-15.33328 -27.00005,-33.49993 -36,-54.5 -8.6667,-21.33322 -13.00002,-44.66653 -13,-70 -2e-5,-25.33315 4.3333,-48.49979 13,-69.5 8.99995,-21.33308 20.99994,-39.49973 36,-54.5 14.99991,-15.33304 32.49989,-27.16636 52.5,-35.5 19.99985,-8.66634 41.1665,-12.99967 63.5,-13 12.33313,3.3e-4 23.83312,0.83366 34.5,2.5 10.66643,1.33366 20.83309,2.83366 30.5,4.5 9.99974,1.66699 19.49973,3.33365 28.5,5 9.33304,1.66698 18.4997,2.66698 27.5,3 -3.1e-4,7.00031 0.16636,15.16697 0.5,24.5 0.66636,9.33361 1.49969,19.00027 2.5,29 0.99969,9.66692 1.99969,19.33358 3,29 0.99968,9.33356 1.99968,17.50022 3,24.5 l -7,0"
         style="font-size:500px;fill:#ffffff;stroke:#ff4900;font-family:Cochin;-inkscape-font-specification:Cochin Medium"
         id="path5277"
         inkscape:connector-curvature="0" />
    </g>
  </g>
  <g
     inkscape:groupmode="layer"
     id="layer3"
     inkscape:label="audio logo"
     transform="translate(-10.53125,-564.8125)">
    <rect
       style="fill:#ffffff;fill-opacity:1;stroke:#9000ff;stroke-width:0;stroke-linecap:round;stroke-linejoin:miter;stroke-miterlimit:4;stroke-opacity:1;stroke-dasharray:none"
       id="rect5083"
       width="13.2412"
       height="28.768024"
       x="158.07993"
       y="812.75714" />
    <rect
       style="fill:#ffffff;fill-opacity:1;stroke:#9000ff;stroke-width:0;stroke-linecap:round;stroke-linejoin:miter;stroke-miterlimit:4;stroke-opacity:1;stroke-dasharray:none"
       id="rect5085"
       width="13.2412"
       height="55.738052"
       x="176.80774"
       y="800.40967" />
    <rect
       style="fill:#ffffff;fill-opacity:1;stroke:#9000ff;stroke-width:0;stroke-linecap:round;stroke-linejoin:miter;stroke-miterlimit:4;stroke-opacity:1;stroke-dasharray:none"
       id="rect5089"
       width="13.2412"
       height="64.728058"
       x="196.31247"
       y="794.89642" />
    <rect
       style="fill:#ffffff;fill-opacity:1;stroke:#9000ff;stroke-width:0;stroke-linecap:round;stroke-linejoin:miter;stroke-miterlimit:4;stroke-opacity:1;stroke-dasharray:none"
       id="rect5091"
       width="13.2412"
       height="95.674767"
       x="214.51422"
       y="776.85669" />
    <rect
       style="fill:#ffffff;fill-opacity:1;stroke:#9000ff;stroke-width:0;stroke-linecap:round;stroke-linejoin:miter;stroke-miterlimit:4;stroke-opacity:1;stroke-dasharray:none"
       id="rect5262"
       width="13.680352"
       height="84.212715"
       x="233.37317"
       y="783.8501" />
    <rect
       style="fill:#ffffff;fill-opacity:1;stroke:#9000ff;stroke-width:0;stroke-linecap:round;stroke-linejoin:miter;stroke-miterlimit:4;stroke-opacity:1;stroke-dasharray:none"
       id="rect5266"
       width="13.028909"
       height="63.159538"
       x="251.61365"
       y="795.61511" />
    <rect
       style="fill:#ffffff;fill-opacity:1;stroke:#9000ff;stroke-width:0;stroke-linecap:round;stroke-linejoin:miter;stroke-miterlimit:4;stroke-opacity:1;stroke-dasharray:none"
       id="rect5268"
       width="12.377462"
       height="43.34478"
       x="269.85413"
       y="803.66492" />
    <rect
       style="fill:#ffffff;fill-opacity:1;stroke:#9000ff;stroke-width:0;stroke-linecap:round;stroke-linejoin:miter;stroke-miterlimit:4;stroke-opacity:1;stroke-dasharray:none"
       id="rect5270"
       width="11.726016"
       height="27.864502"
       x="286.79169"
       y="812.33386" />
  </g>
</svg>
